<svg id="visual" viewBox="0 0 960 200" width="960" height="200" xmlns="http://www.w3.org/2000/svg" xmlns:xlink="http://www.w3.org/1999/xlink" version="1.1"><path d="M0 13L14.5 12.7C29 12.3 58 11.7 87.2 13C116.3 14.3 145.7 17.7 174.8 19C204 20.3 233 19.7 262 18.7C291 17.7 320 16.3 349 15.7C378 15 407 15 436.2 15.3C465.3 15.7 494.7 16.3 523.8 15C553 13.7 582 10.3 611 9.7C640 9 669 11 698 12C727 13 756 13 785.2 14C814.3 15 843.7 17 872.8 16.3C902 15.7 931 12.3 945.5 10.7L960 9L960 0L945.5 0C931 0 902 0 872.8 0C843.7 0 814.3 0 785.2 0C756 0 727 0 698 0C669 0 640 0 611 0C582 0 553 0 523.8 0C494.7 0 465.3 0 436.2 0C407 0 378 0 349 0C320 0 291 0 262 0C233 0 204 0 174.8 0C145.7 0 116.3 0 87.2 0C58 0 29 0 14.5 0L0 0Z" fill="#0c0f17"></path><path d="M0 41L14.5 42.7C29 44.3 58 47.7 87.2 48.3C116.3 49 145.7 47 174.8 45.7C204 44.3 233 43.7 262 44.3C291 45 320 47 349 45.7C378 44.3 407 39.7 436.2 39.3C465.3 39 494.7 43 523.8 43C553 43 582 39 611 36C640 33 669 31 698 30.3C727 29.7 756 30.3 785.2 32C814.3 33.7 843.7 36.3 872.8 38.3C902 40.3 931 41.7 945.5 42.3L960 43L960 7L945.5 8.7C931 10.3 902 13.7 872.8 14.3C843.7 15 814.3 13 785.2 12C756 11 727 11 698 10C669 9 640 7 611 7.7C582 8.3 553 11.7 523.8 13C494.7 14.3 465.3 13.7 436.2 13.3C407 13 378 13 349 13.7C320 14.3 291 15.7 262 16.7C233 17.7 204 18.3 174.8 17C145.7 15.7 116.3 12.3 87.2 11C58 9.7 29 10.3 14.5 10.7L0 11Z" fill="#0f111a"></path><path d="M0 65L14.5 69.3C29 73.7 58 82.3 87.2 87C116.3 91.7 145.7 92.3 174.8 91.7C204 91 233 89 262 89.3C291 89.7 320 92.3 349 89.7C378 87 407 79 436.2 80.7C465.3 82.3 494.7 93.7 523.8 92C553 90.3 582 75.7 611 74.3C640 73 669 85 698 85C727 85 756 73 785.2 70C814.3 67 843.7 73 872.8 74.7C902 76.3 931 73.7 945.5 72.3L960 71L960 41L945.5 40.3C931 39.7 902 38.3 872.8 36.3C843.7 34.3 814.3 31.7 785.2 30C756 28.3 727 27.7 698 28.3C669 29 640 31 611 34C582 37 553 41 523.8 41C494.7 41 465.3 37 436.2 37.3C407 37.7 378 42.3 349 43.7C320 45 291 43 262 42.3C233 41.7 204 42.3 174.8 43.7C145.7 45 116.3 47 87.2 46.3C58 45.7 29 42.3 14.5 40.7L0 39Z" fill="#161a26"></path><path d="M0 83L14.5 86.7C29 90.3 58 97.7 87.2 102.3C116.3 107 145.7 109 174.8 108.3C204 107.7 233 104.3 262 104.7C291 105 320 109 349 105.7C378 102.3 407 91.7 436.2 92.3C465.3 93 494.7 105 523.8 104C553 103 582 89 611 86.7C640 84.3 669 93.7 698 93.7C727 93.7 756 84.3 785.2 81.7C814.3 79 843.7 83 872.8 85C902 87 931 87 945.5 87L960 87L960 69L945.5 70.3C931 71.7 902 74.3 872.8 72.7C843.7 71 814.3 65 785.2 68C756 71 727 83 698 83C669 83 640 71 611 72.3C582 73.7 553 88.3 523.8 90C494.7 91.7 465.3 80.3 436.2 78.7C407 77 378 85 349 87.7C320 90.3 291 87.7 262 87.3C233 87 204 89 174.8 89.7C145.7 90.3 116.3 89.7 87.2 85C58 80.3 29 71.7 14.5 67.3L0 63Z" fill="#272c41"></path><path d="M0 91L14.5 95C29 99 58 107 87.2 111.3C116.3 115.7 145.7 116.3 174.8 115C204 113.7 233 110.3 262 111.3C291 112.3 320 117.7 349 115.7C378 113.7 407 104.3 436.2 105.3C465.3 106.3 494.7 117.7 523.8 116.3C553 115 582 101 611 98.7C640 96.3 669 105.7 698 105.3C727 105 756 95 785.2 91.7C814.3 88.3 843.7 91.7 872.8 94.7C902 97.7 931 100.3 945.5 101.7L960 103L960 85L945.5 85C931 85 902 85 872.8 83C843.7 81 814.3 77 785.2 79.7C756 82.3 727 91.7 698 91.7C669 91.7 640 82.3 611 84.7C582 87 553 101 523.8 102C494.7 103 465.3 91 436.2 90.3C407 89.7 378 100.3 349 103.7C320 107 291 103 262 102.7C233 102.3 204 105.7 174.8 106.3C145.7 107 116.3 105 87.2 100.3C58 95.7 29 88.3 14.5 84.7L0 81Z" fill="#2a3047"></path><path d="M0 107L14.5 112C29 117 58 127 87.2 131C116.3 135 145.7 133 174.8 132C204 131 233 131 262 132.3C291 133.7 320 136.3 349 133.7C378 131 407 123 436.2 123C465.3 123 494.7 131 523.8 130.3C553 129.7 582 120.3 611 121C640 121.7 669 132.3 698 130C727 127.7 756 112.3 785.2 106.3C814.3 100.3 843.7 103.7 872.8 107.7C902 111.7 931 116.3 945.5 118.7L960 121L960 101L945.5 99.7C931 98.3 902 95.7 872.8 92.7C843.7 89.7 814.3 86.3 785.2 89.7C756 93 727 103 698 103.3C669 103.7 640 94.3 611 96.7C582 99 553 113 523.8 114.3C494.7 115.7 465.3 104.3 436.2 103.3C407 102.3 378 111.7 349 113.7C320 115.7 291 110.3 262 109.3C233 108.3 204 111.7 174.8 113C145.7 114.3 116.3 113.7 87.2 109.3C58 105 29 97 14.5 93L0 89Z" fill="#272c41"></path><path d="M0 129L14.5 134C29 139 58 149 87.2 150.3C116.3 151.7 145.7 144.3 174.8 141.3C204 138.3 233 139.7 262 141.3C291 143 320 145 349 144.3C378 143.7 407 140.3 436.2 142C465.3 143.7 494.7 150.3 523.8 149C553 147.7 582 138.3 611 138C640 137.7 669 146.3 698 144C727 141.7 756 128.3 785.2 121.7C814.3 115 843.7 115 872.8 119C902 123 931 131 945.5 135L960 139L960 119L945.5 116.7C931 114.3 902 109.7 872.8 105.7C843.7 101.7 814.3 98.3 785.2 104.3C756 110.3 727 125.7 698 128C669 130.3 640 119.7 611 119C582 118.3 553 127.7 523.8 128.3C494.7 129 465.3 121 436.2 121C407 121 378 129 349 131.7C320 134.3 291 131.7 262 130.3C233 129 204 129 174.8 130C145.7 131 116.3 133 87.2 129C58 125 29 115 14.5 110L0 105Z" fill="#161a26"></path><path d="M0 183L14.5 184.7C29 186.3 58 189.7 87.2 190C116.3 190.3 145.7 187.7 174.8 186.3C204 185 233 185 262 184.3C291 183.7 320 182.3 349 181C378 179.7 407 178.3 436.2 180C465.3 181.7 494.7 186.3 523.8 186.7C553 187 582 183 611 181.7C640 180.3 669 181.7 698 183C727 184.3 756 185.7 785.2 186C814.3 186.3 843.7 185.7 872.8 186C902 186.3 931 187.7 945.5 188.3L960 189L960 137L945.5 133C931 129 902 121 872.8 117C843.7 113 814.3 113 785.2 119.7C756 126.3 727 139.7 698 142C669 144.3 640 135.7 611 136C582 136.3 553 145.7 523.8 147C494.7 148.3 465.3 141.7 436.2 140C407 138.3 378 141.7 349 142.3C320 143 291 141 262 139.3C233 137.7 204 136.3 174.8 139.3C145.7 142.3 116.3 149.7 87.2 148.3C58 147 29 137 14.5 132L0 127Z" fill="#0f111a"></path><path d="M0 201L14.5 201C29 201 58 201 87.2 201C116.3 201 145.7 201 174.8 201C204 201 233 201 262 201C291 201 320 201 349 201C378 201 407 201 436.2 201C465.3 201 494.7 201 523.8 201C553 201 582 201 611 201C640 201 669 201 698 201C727 201 756 201 785.2 201C814.3 201 843.7 201 872.8 201C902 201 931 201 945.5 201L960 201L960 187L945.5 186.3C931 185.7 902 184.3 872.8 184C843.7 183.7 814.3 184.3 785.2 184C756 183.7 727 182.3 698 181C669 179.7 640 178.3 611 179.7C582 181 553 185 523.8 184.7C494.7 184.3 465.3 179.7 436.2 178C407 176.3 378 177.7 349 179C320 180.3 291 181.7 262 182.3C233 183 204 183 174.8 184.3C145.7 185.7 116.3 188.3 87.2 188C58 187.7 29 184.3 14.5 182.7L0 181Z" fill="#0c0f17"></path></svg>