<svg id="visual" viewBox="0 0 960 100" width="960" height="100" xmlns="http://www.w3.org/2000/svg" xmlns:xlink="http://www.w3.org/1999/xlink" version="1.1"><rect x="0" y="0" width="960" height="100" fill="#1e2434"></rect><path d="M0 43L11.5 50.5C23 58 46 73 68.8 73.8C91.7 74.7 114.3 61.3 137.2 59.2C160 57 183 66 205.8 65.7C228.7 65.3 251.3 55.7 274.2 55.3C297 55 320 64 342.8 68.5C365.7 73 388.3 73 411.2 73.3C434 73.7 457 74.3 480 76.7C503 79 526 83 548.8 81C571.7 79 594.3 71 617.2 63.8C640 56.7 663 50.3 685.8 48.2C708.7 46 731.3 48 754.2 55.3C777 62.7 800 75.3 822.8 81.2C845.7 87 868.3 86 891.2 84.8C914 83.7 937 82.3 948.5 81.7L960 81L960 0L948.5 0C937 0 914 0 891.2 0C868.3 0 845.7 0 822.8 0C800 0 777 0 754.2 0C731.3 0 708.7 0 685.8 0C663 0 640 0 617.2 0C594.3 0 571.7 0 548.8 0C526 0 503 0 480 0C457 0 434 0 411.2 0C388.3 0 365.7 0 342.8 0C320 0 297 0 274.2 0C251.3 0 228.7 0 205.8 0C183 0 160 0 137.2 0C114.3 0 91.7 0 68.8 0C46 0 23 0 11.5 0L0 0Z" fill="#1e2434"></path><path d="M0 37L11.5 41.3C23 45.7 46 54.3 68.8 57.8C91.7 61.3 114.3 59.7 137.2 59.2C160 58.7 183 59.3 205.8 61.5C228.7 63.7 251.3 67.3 274.2 68.8C297 70.3 320 69.7 342.8 68.7C365.7 67.7 388.3 66.3 411.2 62.3C434 58.3 457 51.7 480 52.3C503 53 526 61 548.8 62.5C571.7 64 594.3 59 617.2 57.7C640 56.3 663 58.7 685.8 57.5C708.7 56.3 731.3 51.7 754.2 47.5C777 43.3 800 39.7 822.8 44.3C845.7 49 868.3 62 891.2 68.7C914 75.3 937 75.7 948.5 75.8L960 76L960 0L948.5 0C937 0 914 0 891.2 0C868.3 0 845.7 0 822.8 0C800 0 777 0 754.2 0C731.3 0 708.7 0 685.8 0C663 0 640 0 617.2 0C594.3 0 571.7 0 548.8 0C526 0 503 0 480 0C457 0 434 0 411.2 0C388.3 0 365.7 0 342.8 0C320 0 297 0 274.2 0C251.3 0 228.7 0 205.8 0C183 0 160 0 137.2 0C114.3 0 91.7 0 68.8 0C46 0 23 0 11.5 0L0 0Z" fill="#1c2130"></path><path d="M0 52L11.5 54C23 56 46 60 68.8 57.5C91.7 55 114.3 46 137.2 44.2C160 42.3 183 47.7 205.8 46.7C228.7 45.7 251.3 38.3 274.2 36.8C297 35.3 320 39.7 342.8 43C365.7 46.3 388.3 48.7 411.2 49.2C434 49.7 457 48.3 480 45.2C503 42 526 37 548.8 37C571.7 37 594.3 42 617.2 45.7C640 49.3 663 51.7 685.8 53.7C708.7 55.7 731.3 57.3 754.2 57C777 56.7 800 54.3 822.8 50.2C845.7 46 868.3 40 891.2 37.5C914 35 937 36 948.5 36.5L960 37L960 0L948.5 0C937 0 914 0 891.2 0C868.3 0 845.7 0 822.8 0C800 0 777 0 754.2 0C731.3 0 708.7 0 685.8 0C663 0 640 0 617.2 0C594.3 0 571.7 0 548.8 0C526 0 503 0 480 0C457 0 434 0 411.2 0C388.3 0 365.7 0 342.8 0C320 0 297 0 274.2 0C251.3 0 228.7 0 205.8 0C183 0 160 0 137.2 0C114.3 0 91.7 0 68.8 0C46 0 23 0 11.5 0L0 0Z" fill="#191e2c"></path><path d="M0 34L11.5 36.3C23 38.7 46 43.3 68.8 43.8C91.7 44.3 114.3 40.7 137.2 37.2C160 33.7 183 30.3 205.8 33.2C228.7 36 251.3 45 274.2 46.2C297 47.3 320 40.7 342.8 39.7C365.7 38.7 388.3 43.3 411.2 45.7C434 48 457 48 480 46.3C503 44.7 526 41.3 548.8 37.8C571.7 34.3 594.3 30.7 617.2 31.2C640 31.7 663 36.3 685.8 39.3C708.7 42.3 731.3 43.7 754.2 43.7C777 43.7 800 42.3 822.8 41.3C845.7 40.3 868.3 39.7 891.2 40C914 40.3 937 41.7 948.5 42.3L960 43L960 0L948.5 0C937 0 914 0 891.2 0C868.3 0 845.7 0 822.8 0C800 0 777 0 754.2 0C731.3 0 708.7 0 685.8 0C663 0 640 0 617.2 0C594.3 0 571.7 0 548.8 0C526 0 503 0 480 0C457 0 434 0 411.2 0C388.3 0 365.7 0 342.8 0C320 0 297 0 274.2 0C251.3 0 228.7 0 205.8 0C183 0 160 0 137.2 0C114.3 0 91.7 0 68.8 0C46 0 23 0 11.5 0L0 0Z" fill="#171b28"></path><path d="M0 31L11.5 30C23 29 46 27 68.8 28.2C91.7 29.3 114.3 33.7 137.2 32.5C160 31.3 183 24.7 205.8 22.5C228.7 20.3 251.3 22.7 274.2 22.2C297 21.7 320 18.3 342.8 19.2C365.7 20 388.3 25 411.2 29C434 33 457 36 480 36.3C503 36.7 526 34.3 548.8 32.2C571.7 30 594.3 28 617.2 29.5C640 31 663 36 685.8 35.3C708.7 34.7 731.3 28.3 754.2 28.5C777 28.7 800 35.3 822.8 37.5C845.7 39.7 868.3 37.3 891.2 33.8C914 30.3 937 25.7 948.5 23.3L960 21L960 0L948.5 0C937 0 914 0 891.2 0C868.3 0 845.7 0 822.8 0C800 0 777 0 754.2 0C731.3 0 708.7 0 685.8 0C663 0 640 0 617.2 0C594.3 0 571.7 0 548.8 0C526 0 503 0 480 0C457 0 434 0 411.2 0C388.3 0 365.7 0 342.8 0C320 0 297 0 274.2 0C251.3 0 228.7 0 205.8 0C183 0 160 0 137.2 0C114.3 0 91.7 0 68.8 0C46 0 23 0 11.5 0L0 0Z" fill="#151824"></path><path d="M0 22L11.5 20.8C23 19.7 46 17.3 68.8 18C91.7 18.7 114.3 22.3 137.2 22.8C160 23.3 183 20.7 205.8 18C228.7 15.3 251.3 12.7 274.2 12.8C297 13 320 16 342.8 16.7C365.7 17.3 388.3 15.7 411.2 17.3C434 19 457 24 480 23.7C503 23.3 526 17.7 548.8 15.2C571.7 12.7 594.3 13.3 617.2 16.5C640 19.7 663 25.3 685.8 24.8C708.7 24.3 731.3 17.7 754.2 14.7C777 11.7 800 12.3 822.8 13.2C845.7 14 868.3 15 891.2 18C914 21 937 26 948.5 28.5L960 31L960 0L948.5 0C937 0 914 0 891.2 0C868.3 0 845.7 0 822.8 0C800 0 777 0 754.2 0C731.3 0 708.7 0 685.8 0C663 0 640 0 617.2 0C594.3 0 571.7 0 548.8 0C526 0 503 0 480 0C457 0 434 0 411.2 0C388.3 0 365.7 0 342.8 0C320 0 297 0 274.2 0C251.3 0 228.7 0 205.8 0C183 0 160 0 137.2 0C114.3 0 91.7 0 68.8 0C46 0 23 0 11.5 0L0 0Z" fill="#131520"></path><path d="M0 12L11.5 12.2C23 12.3 46 12.7 68.8 13.2C91.7 13.7 114.3 14.3 137.2 14.2C160 14 183 13 205.8 12.8C228.7 12.7 251.3 13.3 274.2 11.8C297 10.3 320 6.7 342.8 7.5C365.7 8.3 388.3 13.7 411.2 14.5C434 15.3 457 11.7 480 11.5C503 11.3 526 14.7 548.8 16.7C571.7 18.7 594.3 19.3 617.2 18.7C640 18 663 16 685.8 13.2C708.7 10.3 731.3 6.7 754.2 5.2C777 3.7 800 4.3 822.8 4.5C845.7 4.7 868.3 4.3 891.2 4.8C914 5.3 937 6.7 948.5 7.3L960 8L960 0L948.5 0C937 0 914 0 891.2 0C868.3 0 845.7 0 822.8 0C800 0 777 0 754.2 0C731.3 0 708.7 0 685.8 0C663 0 640 0 617.2 0C594.3 0 571.7 0 548.8 0C526 0 503 0 480 0C457 0 434 0 411.2 0C388.3 0 365.7 0 342.8 0C320 0 297 0 274.2 0C251.3 0 228.7 0 205.8 0C183 0 160 0 137.2 0C114.3 0 91.7 0 68.8 0C46 0 23 0 11.5 0L0 0Z" fill="#10121c"></path></svg>